<svg width="32" height="32" viewBox="0 0 32 32" fill="none" xmlns="http://www.w3.org/2000/svg">
<g clip-path="url(#clip0_26_3086)">
<path d="M24 8.00002H21.3333C21.3333 5.05335 18.9466 2.66669 16 2.66669C13.0533 2.66669 10.6666 5.05335 10.6666 8.00002H7.99998C6.53331 8.00002 5.33331 9.20002 5.33331 10.6667V26.6667C5.33331 28.1334 6.53331 29.3334 7.99998 29.3334H24C25.4666 29.3334 26.6666 28.1334 26.6666 26.6667V10.6667C26.6666 9.20002 25.4666 8.00002 24 8.00002ZM16 5.33335C17.4666 5.33335 18.6666 6.53335 18.6666 8.00002H13.3333C13.3333 6.53335 14.5333 5.33335 16 5.33335ZM24 26.6667H7.99998V10.6667H10.6666V13.3334C10.6666 14.0667 11.2666 14.6667 12 14.6667C12.7333 14.6667 13.3333 14.0667 13.3333 13.3334V10.6667H18.6666V13.3334C18.6666 14.0667 19.2666 14.6667 20 14.6667C20.7333 14.6667 21.3333 14.0667 21.3333 13.3334V10.6667H24V26.6667Z" fill="#002F52"/>
</g>
<defs>
<clipPath id="clip0_26_3086">
<rect width="32" height="32" fill="white"/>
</clipPath>
</defs>
</svg>
