<svg width="19" height="19" viewBox="0 0 19 19" fill="none" xmlns="http://www.w3.org/2000/svg">
<g clip-path="url(#clip0_154_8091)">
<path d="M9.54412 3.68896C5.73079 3.68896 2.4742 6.06086 1.15479 9.40896C2.4742 12.7571 5.73079 15.129 9.54412 15.129C13.3575 15.129 16.614 12.7571 17.9335 9.40896C16.614 6.06086 13.3575 3.68896 9.54412 3.68896ZM9.54412 13.2223C7.43916 13.2223 5.73079 11.5139 5.73079 9.40896C5.73079 7.304 7.43916 5.59563 9.54412 5.59563C11.6491 5.59563 13.3575 7.304 13.3575 9.40896C13.3575 11.5139 11.6491 13.2223 9.54412 13.2223ZM9.54412 7.12096C8.27809 7.12096 7.25612 8.14294 7.25612 9.40896C7.25612 10.675 8.27809 11.697 9.54412 11.697C10.8101 11.697 11.8321 10.675 11.8321 9.40896C11.8321 8.14294 10.8101 7.12096 9.54412 7.12096Z" fill="#002F52"/>
</g>
<defs>
<clipPath id="clip0_154_8091">
<rect width="18.304" height="18.304" fill="white" transform="translate(0.39209 0.255859)"/>
</clipPath>
</defs>
</svg>
